HIERARCHY
ROOT Hips
{
	OFFSET 0.000000 0.000000 0.000000
	CHANNELS 6 Xposition Yposition Zposition Xrotation Zrotation Yrotation
	JOINT Spine1
	{
		OFFSET 0.000000 -0.000001 5.553894
		CHANNELS 6 Xposition Yposition Zposition Xrotation Zrotation Yrotation
		JOINT Neck
		{
			OFFSET 0.000000 -0.000001 4.427760
			CHANNELS 6 Xposition Yposition Zposition Xrotation Zrotation Yrotation
			JOINT Head
			{
				OFFSET 0.000000 -0.363272 2.815360
				CHANNELS 6 Xposition Yposition Zposition Xrotation Zrotation Yrotation
				End Site
				{
					OFFSET 0.000000 -0.000001 3.632711
				}
			}
		}
		JOINT LeftShoulder
		{
			OFFSET 0.731534 0.096024 3.575179
			CHANNELS 6 Xposition Yposition Zposition Xrotation Zrotation Yrotation
			JOINT LeftArm
			{
				OFFSET 2.610320 0.000000 0.000000
				CHANNELS 6 Xposition Yposition Zposition Xrotation Zrotation Yrotation
				JOINT LeftForeArm
				{
					OFFSET 5.118420 0.000000 0.000000
					CHANNELS 6 Xposition Yposition Zposition Xrotation Zrotation Yrotation
					JOINT LeftHand
					{
						OFFSET 4.756899 0.000000 0.000000
						CHANNELS 6 Xposition Yposition Zposition Xrotation Zrotation Yrotation
						End Site
						{
							OFFSET 2.724534 0.000000 0.000000
						}
					}
				}
			}
		}
		JOINT RightShoulder
		{
			OFFSET -0.721442 0.096024 3.575179
			CHANNELS 6 Xposition Yposition Zposition Xrotation Zrotation Yrotation
			JOINT RightArm
			{
				OFFSET -2.610320 0.000000 0.000000
				CHANNELS 6 Xposition Yposition Zposition Xrotation Zrotation Yrotation
				JOINT RightForeArm
				{
					OFFSET -5.118420 0.000000 0.000000
					CHANNELS 6 Xposition Yposition Zposition Xrotation Zrotation Yrotation
					JOINT RightHand
					{
						OFFSET -4.756900 0.000000 0.000000
						CHANNELS 6 Xposition Yposition Zposition Xrotation Zrotation Yrotation
						End Site
						{
							OFFSET -2.724534 0.000000 0.000000
						}
					}
				}
			}
		}
	}
	JOINT LeftUpLeg
	{
		OFFSET 1.816360 0.000000 0.000000
		CHANNELS 6 Xposition Yposition Zposition Xrotation Zrotation Yrotation
		JOINT LeftLeg
		{
			OFFSET 0.000000 0.000001 -7.638980
			CHANNELS 6 Xposition Yposition Zposition Xrotation Zrotation Yrotation
			JOINT LeftFoot
			{
				OFFSET 0.000000 0.000001 -8.008600
				CHANNELS 6 Xposition Yposition Zposition Xrotation Zrotation Yrotation
				JOINT LeftToeBase
				{
					OFFSET 0.000000 -2.724540 -1.180634
					CHANNELS 6 Xposition Yposition Zposition Xrotation Zrotation Yrotation
					End Site
					{
						OFFSET 0.000000 -0.726542 0.000000
					}
				}
			}
		}
	}
	JOINT RightUpLeg
	{
		OFFSET -1.816360 0.000000 0.000000
		CHANNELS 6 Xposition Yposition Zposition Xrotation Zrotation Yrotation
		JOINT RightLeg
		{
			OFFSET 0.000000 0.000001 -7.638980
			CHANNELS 6 Xposition Yposition Zposition Xrotation Zrotation Yrotation
			JOINT RightFoot
			{
				OFFSET 0.000000 0.000001 -8.008600
				CHANNELS 6 Xposition Yposition Zposition Xrotation Zrotation Yrotation
				JOINT RightToeBase
				{
					OFFSET 0.000000 -2.724540 -1.180634
					CHANNELS 6 Xposition Yposition Zposition Xrotation Zrotation Yrotation
					End Site
					{
						OFFSET 0.000000 -0.726542 0.000000
					}
				}
			}
		}
	}
}
MOTION
Frames: 8
Frame Time: 0.041667
-0.673611 -0.372076 14.927923 17.795875 0.478167 -2.202700 -0.000000 -0.000000 5.553895 -19.844491 -4.007374 -7.239848 0.000000 -0.000001 4.427762 13.489275 1.244694 2.782615 0.000000 -0.363272 2.815358 5.290525 1.739556 5.878521 0.731534 0.096024 3.575177 -8.165159 0.702210 -18.399468 2.610321 -0.000001 -0.000002 -10.906257 -11.554724 6.417210 5.118421 0.000000 0.000002 -4.453392 2.120898 3.004187 4.756898 -0.000001 0.000002 -5.134429 18.268161 -3.888919 -0.721442 0.096024 3.575180 -1.098314 -4.642855 14.536099 -2.610320 -0.000000 0.000000 20.563913 23.171246 -18.328688 -5.118419 -0.000001 -0.000000 75.252142 50.263748 108.920036 -4.756900 0.000001 -0.000001 6.849806 -6.475576 31.234243 1.816360 0.000001 0.000002 -39.585734 13.451116 -25.217436 0.000000 0.000002 -7.638980 34.897363 12.422665 12.082341 0.000000 0.000001 -8.008601 3.504373 17.412061 7.457167 -0.000000 -2.724539 -1.180634 -0.000001 -0.000002 -0.000001 -1.816360 0.000000 0.000000 -26.266131 11.850435 30.926871 0.000001 0.000002 -7.638980 32.457278 -17.555514 -26.313751 0.000000 0.000001 -8.008599 -4.680321 -26.608127 -10.093763 0.000000 -2.724541 -1.180634 0.000002 0.000001 -0.000001 
-0.673369 -0.376156 14.929134 17.759865 0.520322 -2.175019 0.000000 0.000001 5.553892 -19.817802 -4.045564 -7.240967 0.000000 -0.000001 4.427760 13.487119 1.253678 2.788836 0.000000 -0.363273 2.815359 5.353912 1.747106 5.899098 0.731534 0.096024 3.575179 -8.173956 0.688202 -18.403579 2.610320 -0.000000 0.000004 -10.958635 -11.565373 6.462744 5.118420 -0.000000 -0.000001 -4.432852 2.146226 3.009460 4.756898 -0.000000 -0.000000 -5.111894 18.258965 -3.873729 -0.721441 0.096024 3.575181 -1.088870 -4.650987 14.540648 -2.610321 -0.000000 0.000002 20.506332 23.180320 -18.379762 -5.118418 -0.000000 -0.000001 75.319856 50.293552 108.925412 -4.756900 -0.000001 -0.000001 6.880733 -6.448695 31.289120 1.816360 0.000001 -0.000002 -39.536451 13.413358 -25.211256 0.000000 0.000002 -7.638980 34.876028 12.422868 12.077457 0.000000 0.000001 -8.008598 3.513602 17.400458 7.463087 0.000000 -2.724539 -1.180635 -0.000000 -0.000001 -0.000001 -1.816360 0.000001 -0.000002 -26.187483 11.810994 30.915813 -0.000000 0.000001 -7.638982 32.415822 -17.551904 -26.300297 0.000000 0.000001 -8.008599 -4.675903 -26.633858 -10.114352 0.000001 -2.724539 -1.180633 -0.000002 -0.000003 -0.000000 
-0.672866 -0.377736 14.930073 17.757706 0.528408 -2.163718 0.000000 -0.000000 5.553895 -19.823897 -4.043038 -7.232717 0.000000 -0.000001 4.427763 13.479448 1.259348 2.764767 -0.000000 -0.363272 2.815361 5.423653 1.754960 5.967199 0.731534 0.096024 3.575179 -8.178390 0.675162 -18.416593 2.610319 -0.000001 -0.000001 -10.991268 -11.578883 6.510851 5.118421 -0.000001 -0.000001 -4.401545 2.167309 3.000642 4.756902 0.000001 0.000000 -5.079459 18.258841 -3.864346 -0.721443 0.096024 3.575181 -1.093820 -4.650513 14.527619 -2.610320 -0.000000 -0.000000 20.470176 23.186079 -18.424005 -5.118419 -0.000001 0.000003 75.365701 50.289023 108.926989 -4.756901 0.000001 0.000001 6.943994 -6.411288 31.234052 1.816360 0.000001 0.000001 -39.564202 13.471086 -25.219268 -0.000000 0.000001 -7.638978 34.870879 12.373823 12.031079 0.000000 0.000000 -8.008599 3.516239 17.387066 7.465098 0.000000 -2.724539 -1.180633 -0.000001 0.000000 0.000000 -1.816360 0.000001 0.000001 -26.180810 11.803414 30.900223 0.000001 0.000001 -7.638980 32.407571 -17.535297 -26.275900 -0.000001 0.000001 -8.008601 -4.672351 -26.641172 -10.158078 0.000000 -2.724540 -1.180633 -0.000001 -0.000002 -0.000000 
-0.672244 -0.379411 14.931113 17.758188 0.543385 -2.156663 0.000000 -0.000001 5.553895 -19.825382 -4.050353 -7.236170 -0.000000 -0.000001 4.427762 13.466438 1.273706 2.789845 -0.000000 -0.363271 2.815358 5.485478 1.767255 5.983513 0.731533 0.096024 3.575177 -8.180293 0.639058 -18.403050 2.610320 -0.000000 0.000004 -11.061431 -11.571538 6.543582 5.118420 0.000001 -0.000001 -4.372664 2.194129 3.022032 4.756899 0.000001 0.000003 -5.052670 18.239795 -3.874506 -0.721442 0.096024 3.575179 -1.095539 -4.662687 14.540440 -2.610320 -0.000000 0.000003 20.358152 23.155762 -18.486173 -5.118419 -0.000000 0.000005 75.531114 50.337804 108.964815 -4.756904 0.000001 0.000004 7.013329 -6.414200 31.241760 1.816360 0.000000 0.000001 -39.556545 13.460909 -25.209801 -0.000000 0.000002 -7.638982 34.865100 12.373427 12.028026 0.000000 0.000001 -8.008599 3.520409 17.386938 7.420595 0.000000 -2.724540 -1.180634 0.000001 -0.000000 0.000001 -1.816360 -0.000000 0.000001 -26.167466 11.795363 30.892987 -0.000001 0.000002 -7.638982 32.402380 -17.558413 -26.268361 -0.000000 0.000001 -8.008599 -4.657727 -26.647389 -10.153658 0.000000 -2.724539 -1.180634 -0.000000 -0.000002 -0.000000 
-0.672147 -0.381575 14.932430 17.749218 0.549088 -2.157204 -0.000000 -0.000001 5.553893 -19.822141 -4.035147 -7.228904 0.000000 -0.000001 4.427763 13.460843 1.264468 2.792259 0.000000 -0.363272 2.815362 5.523927 1.758933 6.025472 0.731534 0.096024 3.575180 -8.175969 0.634689 -18.427328 2.610319 -0.000001 -0.000003 -11.109251 -11.604984 6.612860 5.118421 -0.000000 0.000001 -4.340357 2.215962 3.038743 4.756899 -0.000001 -0.000000 -5.019658 18.251744 -3.861944 -0.721442 0.096024 3.575183 -1.102620 -4.690889 14.542354 -2.610321 -0.000000 -0.000003 20.379000 23.172482 -18.502352 -5.118419 0.000000 0.000005 75.524940 50.302332 108.980149 -4.756901 0.000001 0.000001 7.034858 -6.416762 31.223902 1.816360 0.000000 -0.000000 -39.536540 13.474797 -25.198098 -0.000000 0.000001 -7.638982 34.842940 12.381997 12.009995 0.000000 0.000001 -8.008599 3.543207 17.370641 7.441009 -0.000000 -2.724539 -1.180633 -0.000003 -0.000002 0.000001 -1.816360 0.000000 -0.000001 -26.159894 11.789564 30.885149 0.000000 0.000002 -7.638981 32.412014 -17.570896 -26.256345 -0.000000 0.000001 -8.008599 -4.630088 -26.656794 -10.127741 -0.000000 -2.724539 -1.180633 -0.000001 -0.000003 0.000000 
-0.671438 -0.382839 14.933132 17.751411 0.561960 -2.147261 0.000000 -0.000002 5.553892 -19.830916 -4.024003 -7.218817 -0.000000 -0.000000 4.427760 13.448245 1.269303 2.819058 0.000000 -0.363273 2.815360 5.575480 1.759068 6.007121 0.731534 0.096025 3.575180 -8.167777 0.624856 -18.452582 2.610319 -0.000000 -0.000001 -11.158938 -11.635501 6.660216 5.118419 0.000000 -0.000003 -4.296686 2.245909 3.070357 4.756899 -0.000000 -0.000000 -4.975718 18.293805 -3.842493 -0.721442 0.096025 3.575181 -1.107655 -4.705821 14.528263 -2.610321 -0.000000 -0.000002 20.374311 23.174338 -18.526080 -5.118420 -0.000002 0.000003 75.565511 50.286564 109.010325 -4.756901 0.000000 -0.000001 7.057559 -6.443142 31.226276 1.816360 -0.000000 -0.000003 -39.527626 13.457085 -25.194037 -0.000000 0.000002 -7.638981 34.836977 12.367435 12.017366 0.000000 0.000001 -8.008597 3.533570 17.390990 7.441366 -0.000000 -2.724540 -1.180634 0.000000 -0.000003 0.000001 -1.816360 -0.000000 -0.000002 -26.151001 11.782186 30.872814 0.000001 0.000001 -7.638981 32.375783 -17.524531 -26.230314 0.000001 0.000001 -8.008599 -4.631603 -26.717067 -10.171497 0.000000 -2.724539 -1.180633 -0.000002 -0.000001 -0.000001 
-0.671464 -0.384055 14.934084 17.753048 0.571457 -2.137621 0.000000 -0.000000 5.553894 -19.835848 -4.017765 -7.211070 -0.000000 -0.000001 4.427760 13.421587 1.283807 2.848703 -0.000000 -0.363273 2.815359 5.633517 1.768472 5.988226 0.731533 0.096024 3.575178 -8.165846 0.630266 -18.470776 2.610320 -0.000001 0.000002 -11.180778 -11.684662 6.695797 5.118419 -0.000000 -0.000003 -4.284472 2.273439 3.099205 4.756899 -0.000002 0.000000 -4.969740 18.305819 -3.870380 -0.721442 0.096024 3.575178 -1.105039 -4.714186 14.525833 -2.610320 -0.000000 -0.000003 20.349908 23.173626 -18.557293 -5.118419 0.000001 -0.000004 75.653600 50.301604 109.066626 -4.756903 -0.000000 -0.000001 7.066900 -6.462851 31.238727 1.816360 0.000000 -0.000000 -39.544309 13.483239 -25.194555 -0.000001 0.000002 -7.638980 34.829406 12.344719 11.985299 0.000001 0.000001 -8.008599 3.548027 17.383711 7.481215 0.000000 -2.724540 -1.180633 -0.000002 0.000002 -0.000001 -1.816360 0.000000 -0.000001 -26.149294 11.776880 30.857616 -0.000001 0.000001 -7.638980 32.364025 -17.505280 -26.207465 0.000001 0.000001 -8.008599 -4.604353 -26.746707 -10.150805 -0.000000 -2.724540 -1.180632 -0.000002 0.000001 -0.000000 
-0.671874 -0.384980 14.935061 17.759747 0.585786 -2.125659 0.000000 -0.000001 5.553895 -19.850278 -4.016100 -7.195510 -0.000000 -0.000001 4.427759 13.416534 1.279927 2.857905 0.000000 -0.363273 2.815362 5.653368 1.763274 5.989022 0.731534 0.096024 3.575180 -8.136274 0.651947 -18.496770 2.610318 -0.000000 -0.000000 -11.227253 -11.745889 6.731700 5.118420 0.000000 0.000000 -4.256064 2.297662 3.117872 4.756896 -0.000001 0.000002 -4.932128 18.319290 -3.804162 -0.721442 0.096024 3.575178 -1.117142 -4.674565 14.534427 -2.610320 0.000000 -0.000002 20.364998 23.131645 -18.626684 -5.118418 -0.000001 0.000000 75.773866 50.321327 109.170943 -4.756901 0.000001 0.000004 7.052370 -6.488439 31.283267 1.816360 0.000000 -0.000001 -39.538100 13.455241 -25.190923 0.000000 0.000002 -7.638979 34.816941 12.368307 11.993398 0.000000 0.000001 -8.008601 3.553960 17.380712 7.447443 0.000000 -2.724540 -1.180635 0.000000 -0.000003 -0.000000 -1.816360 0.000001 -0.000000 -26.167537 11.777673 30.830887 0.000001 0.000002 -7.638981 32.418349 -17.572521 -26.191183 -0.000000 0.000001 -8.008601 -4.593779 -26.702068 -10.227135 0.000001 -2.724538 -1.180633 -0.000003 0.000000 0.000000 
